<?xml version="1.0" encoding="utf-8"?>
<!-- Generator: Adobe Illustrator 22.0.1, SVG Export Plug-In . SVG Version: 6.00 Build 0)  -->
<svg version="1.1" id="_x2014_ÎÓÈ_x5F_1" xmlns="http://www.w3.org/2000/svg" xmlns:xlink="http://www.w3.org/1999/xlink"
	 x="0px" y="0px" viewBox="0 0 26 26" style="enable-background:new 0 0 26 26;" xml:space="preserve">
<style type="text/css">
	.st0{fill:#002F87;}
	.st1{fill:#FFFFFF;}
</style>
<g>
	<circle class="st0" cx="13.1" cy="13.1" r="12"/>
	<g>
		<path class="st1" d="M9.9,3.9C9.5,3.7,9,3.9,8.8,4.4l8.4,3c0.2-0.2,0.4-0.4,0.7-0.4c-0.1-0.2-0.3-0.3-0.5-0.4L9.9,3.9z"/>
		<path class="st1" d="M15.8,19.4L16.9,9H8.3l0,0.6l0,0l0-0.6l0,0l0.8,12.7c0,0.4,0.4,0.7,0.8,0.7h4.6c-0.4-0.3-0.7-0.8-0.7-1.4
			c0-1,0.8-1.7,1.7-1.7C15.6,19.3,15.7,19.4,15.8,19.4L15.8,19.4z"/>
		<path class="st1" d="M15.5,20.4c0.4,0,0.7,0.3,0.7,0.7s-0.3,0.7-0.7,0.7c-0.4,0-0.7-0.3-0.7-0.7C14.8,20.7,15.1,20.4,15.5,20.4
			L15.5,20.4z M16.9,21.1c0-0.8-0.6-1.4-1.4-1.4c-0.8,0-1.4,0.6-1.4,1.4c0,0.8,0.6,1.4,1.4,1.4C16.3,22.5,16.9,21.9,16.9,21.1
			L16.9,21.1z"/>
		<path class="st1" d="M18,7.1c0.3,0,0.5,0.2,0.5,0.5c0,0.3-0.2,0.5-0.5,0.5c-0.3,0-0.5-0.2-0.5-0.5C17.4,7.4,17.7,7.1,18,7.1
			L18,7.1z"/>
		<path class="st1" d="M18,7.5c0.1,0,0.2,0.1,0.2,0.2c0,0.1-0.1,0.2-0.2,0.2c-0.1,0-0.2-0.1-0.2-0.2S17.9,7.5,18,7.5L18,7.5z"/>
		<path class="st1" d="M17.1,7.8c0.1,0.3,0.3,0.5,0.5,0.6c-0.2,0.2-0.4,0.2-0.6,0.2H7.9c-0.1,0-0.2-0.1-0.2-0.2V8
			c0-0.1,0.1-0.2,0.2-0.2H17.1z"/>
	</g>
</g>
</svg>
