<?xml version="1.0" encoding="utf-8"?>
<!-- Generator: Adobe Illustrator 22.0.1, SVG Export Plug-In . SVG Version: 6.00 Build 0)  -->
<svg version="1.1" id="_x2014_ÎÓÈ_x5F_1" xmlns="http://www.w3.org/2000/svg" xmlns:xlink="http://www.w3.org/1999/xlink"
	 x="0px" y="0px" viewBox="0 0 26 26" style="enable-background:new 0 0 26 26;" xml:space="preserve">
<style type="text/css">
	.st0{fill:#009BDE;}
	.st1{fill:#FFFFFF;}
</style>
<g>
	<circle class="st0" cx="13" cy="13" r="12"/>
	<g>
		<path class="st1" d="M18.6,4.8H7.4C6,4.8,4.8,6,4.8,7.3v11.3c0,1.4,1.1,2.5,2.5,2.5h11.3c1.4,0,2.5-1.1,2.5-2.5V7.4
			C21.2,6,20,4.8,18.6,4.8z M20.1,18.6c0,0.8-0.7,1.5-1.5,1.5H7.4c-0.8,0-1.5-0.7-1.5-1.5V7.4c0-0.8,0.7-1.5,1.5-1.5h11.3
			c0.8,0,1.5,0.7,1.5,1.5V18.6z"/>
		<path class="st1" d="M16.6,9.3h-0.1V8.9c0-0.9-0.8-1.7-1.7-1.7h-3.7c-0.5,0-0.9,0.2-1.2,0.5C9.6,8,9.5,8.4,9.5,8.9v0.4H9.3
			C9.2,9.3,9,9.4,9,9.6v0.9c0,0.2,0.1,0.3,0.3,0.3h0.1v3.6c0,0.3,0.2,0.5,0.5,0.5h0.1v0.8c0,0.3,0.2,0.5,0.5,0.5h0.6
			c0.3,0,0.5-0.2,0.5-0.5v-0.8h2.7v0.8c0,0.3,0.2,0.5,0.5,0.5h0.6c0.3,0,0.5-0.2,0.5-0.5v-0.8H16c0.3,0,0.5-0.2,0.5-0.5v-3.6h0.1
			c0.2,0,0.3-0.1,0.3-0.3V9.6C17,9.4,16.8,9.3,16.6,9.3z M10.7,14.1c-0.2,0-0.4-0.2-0.4-0.4s0.2-0.4,0.4-0.4c0.2,0,0.4,0.2,0.4,0.4
			S11,14.1,10.7,14.1z M15.3,14.1c-0.2,0-0.4-0.2-0.4-0.4s0.2-0.4,0.4-0.4c0.2,0,0.4,0.2,0.4,0.4C15.7,13.9,15.5,14.1,15.3,14.1z
			 M15.8,11.5c0,0.1-0.1,0.2-0.2,0.2h-5c-0.1,0-0.2-0.1-0.2-0.2v-2c0-0.6,0.5-1,1-1h3.5c0.6,0,1,0.5,1,1V11.5z"/>
		<path class="st1" d="M8.6,18c0.1,0,0.3-0.2,0.3-0.4c0-0.3-0.2-0.4-0.5-0.4H7.8v1.6h0.6c0.4,0,0.5-0.2,0.5-0.5
			C8.9,18.1,8.8,18,8.6,18z M8.1,17.4h0.2c0.1,0,0.3,0,0.3,0.2c0,0.1-0.1,0.2-0.3,0.2H8.1V17.4z M8.4,18.5H8.1v-0.4h0.3
			c0.1,0,0.3,0.1,0.3,0.2C8.6,18.5,8.5,18.5,8.4,18.5z"/>
		<path class="st1" d="M10.2,18.2c0,0.2-0.1,0.4-0.4,0.4s-0.4-0.1-0.4-0.4v-1H9.2v0.9c0,0.5,0.2,0.7,0.6,0.7s0.6-0.3,0.6-0.8v-0.9
			h-0.3C10.2,17.2,10.2,18.2,10.2,18.2z"/>
		<path class="st1" d="M11.4,17.9c-0.2-0.1-0.3-0.1-0.3-0.3c0-0.1,0.1-0.2,0.2-0.2c0.1,0,0.2,0,0.3,0.1l0.2-0.2
			c-0.1-0.1-0.2-0.2-0.5-0.2c-0.3,0-0.5,0.2-0.5,0.4c0,0.2,0.2,0.4,0.4,0.5c0.2,0.1,0.3,0.1,0.3,0.3c0,0.2-0.1,0.2-0.2,0.2
			c-0.2,0-0.3-0.1-0.3-0.3l-0.2,0.2c0.1,0.2,0.2,0.4,0.5,0.4c0.3,0,0.5-0.2,0.5-0.5C11.8,18.1,11.7,18,11.4,17.9z"/>
		<path class="st1" d="M13.5,17.9c-0.2-0.1-0.3-0.1-0.3-0.3c0-0.1,0.1-0.2,0.2-0.2c0.1,0,0.2,0,0.3,0.1l0.2-0.2
			c-0.1-0.1-0.2-0.2-0.5-0.2c-0.3,0-0.5,0.2-0.5,0.4c0,0.2,0.2,0.4,0.4,0.5c0.2,0.1,0.3,0.1,0.3,0.3c0,0.2-0.1,0.2-0.2,0.2
			c-0.2,0-0.3-0.1-0.3-0.3l-0.2,0.2c0.1,0.2,0.2,0.4,0.5,0.4c0.3,0,0.5-0.2,0.5-0.5C13.9,18.1,13.8,18,13.5,17.9z"/>
		<polygon class="st1" points="14.1,17.4 14.5,17.4 14.5,18.8 14.8,18.8 14.8,17.4 15.2,17.4 15.2,17.2 14.1,17.2 		"/>
		<path class="st1" d="M16.1,17.2c-0.5,0-0.8,0.4-0.8,0.8c0,0.5,0.3,0.8,0.8,0.8s0.8-0.4,0.8-0.8C16.8,17.5,16.6,17.2,16.1,17.2z
			 M16.1,18.6c-0.3,0-0.5-0.2-0.5-0.6c0-0.3,0.2-0.6,0.5-0.6s0.5,0.2,0.5,0.6C16.6,18.3,16.4,18.6,16.1,18.6z"/>
		<path class="st1" d="M17.7,17.2h-0.5v1.6h0.3v-0.7h0.2c0.3,0,0.5-0.1,0.5-0.5C18.2,17.4,18,17.2,17.7,17.2z M17.7,17.9h-0.2v-0.4
			h0.2c0.1,0,0.3,0,0.3,0.2C17.9,17.8,17.8,17.9,17.7,17.9z"/>
	</g>
</g>
</svg>
