<?xml version="1.0" encoding="utf-8"?>
<!-- Generator: Adobe Illustrator 22.0.1, SVG Export Plug-In . SVG Version: 6.00 Build 0)  -->
<svg version="1.1" id="_x2014_ÎÓÈ_x5F_1" xmlns="http://www.w3.org/2000/svg" xmlns:xlink="http://www.w3.org/1999/xlink"
	 x="0px" y="0px" viewBox="0 0 26 26" style="enable-background:new 0 0 26 26;" xml:space="preserve">
<style type="text/css">
	.st0{fill:#9F1B96;}
	.st1{fill:none;}
	.st2{fill:#FFFFFF;}
</style>
<g>
	<circle class="st0" cx="13" cy="13.1" r="12"/>
	<path class="st1" d="M12.2,18.2c-0.1,0.1-0.1,0.2-0.1,0.3c0,0.2,0.2,0.4,0.4,0.4c0.1,0,0.2,0,0.3-0.1l0.7-0.7L13,17.5L12.2,18.2
		L12.2,18.2z"/>
	<path class="st1" d="M12.3,18.1c-0.1,0.1-0.1,0.2-0.1,0.3c0,0.2,0.2,0.4,0.4,0.4c0.1,0,0.2,0,0.3-0.1l0.6-0.6l-0.6-0.6L12.3,18.1
		L12.3,18.1z"/>
	<path class="st2" d="M23,20.6l-1.7-1.7c0,0-0.4-0.4-0.4-1.1c0-0.8-0.4-3.5-0.4-3.7c0-0.1-0.1-0.7-0.5-1.1c-0.3-0.3-0.6-0.6-0.9-0.9
		c-0.4-0.4-0.9-0.9-1.2-1.2c-0.3-0.3-0.4-0.3-1.2-0.4c-0.1,0-0.2,0-0.3,0l-3.9-0.5L8.5,6c0,0,0,0,0,0l0,0l0,0c0,0-0.1,0-0.1-0.1
		l-1-0.3c-0.1,0-0.2,0-0.2,0.1S7.1,5.8,7.1,5.9l0.2,0.6L6.7,6.4c-0.1,0-0.2,0-0.2,0.1C6.4,6.5,6.4,6.6,6.4,6.6l0.2,0.6L5.9,7.1
		c-0.1,0-0.2,0-0.2,0.1C5.7,7.2,5.6,7.3,5.7,7.3l0.2,0.6L5.2,7.8C5.1,7.8,5,7.8,5,7.8C4.9,7.9,4.9,8,4.9,8.1l0.2,0.6L4.5,8.5
		c-0.1,0-0.2,0-0.2,0.1C4.2,8.6,4.2,8.7,4.2,8.8l0.2,0.6L3.8,9.2c-0.1,0-0.2,0-0.2,0.1S3.4,9.4,3.5,9.5l0.2,0.6L3,9.9
		c-0.1,0-0.2,0-0.2,0.1c-0.1,0.1-0.1,0.2-0.1,0.2l0.3,1c0,0,0,0.1,0.1,0.1l0,0l0,0l0,0l7.3,7.5c0.1,0.1,0.3,0.2,0.4,0.2
		c0.2,0,0.3-0.1,0.4-0.2l0.6-0.6c0.1,0.4,0.5,0.8,1,0.8c0.1,0,0.2,0,0.2,0c0.1,0.5,0.5,0.9,1,0.9c0.3,0,0.5-0.1,0.7-0.3l0.5-0.5
		c0.1,0.4,0.3,1.1,0.9,1.6c0.8,0.8,2.3,1.3,2.4,1.3c0,0,0.1,0,0.1,0c0.1,0,0.2-0.1,0.2-0.2c0-0.1,0-0.3-0.2-0.3c0,0-1.5-0.5-2.2-1.2
		c-0.8-0.8-0.8-1.7-0.8-1.7c0-0.1,0-0.1-0.1-0.2l-4.1-4.1c-0.3-0.3-0.3-0.8,0-1.1c0.1-0.1,0.3-0.2,0.5-0.2c0.2,0,0.4,0.1,0.5,0.2
		l2,2l0,0l0,0l0.5,0.5c0,0,0.4,0.4,0.9,0.4l0,0c0.2,0,0.4-0.1,0.6-0.3c0.4-0.5,0.6-0.8,0.7-0.9c0-0.1,0.1-0.2,0.2-0.5
		c0-0.2,0.2-1.3,0.2-1.3s0,0,0,0c0,0,0-0.7-0.6-0.9c-0.5-0.2-2.4-0.7-2.8-0.8l-0.8-0.8L13,10.5l3.3,0.5c0.1,0,0.2,0,0.3,0
		c0.8,0.1,0.8,0.1,0.9,0.2c0.4,0.4,0.8,0.8,1.2,1.2c0.3,0.3,0.7,0.7,0.9,0.9c0.4,0.4,0.4,0.8,0.4,0.8v0c0,0,0.4,2.9,0.4,3.6
		c0,0.9,0.5,1.4,0.5,1.4l1.7,1.7c0.1,0.1,0.3,0.1,0.4,0C23.1,20.8,23.1,20.7,23,20.6z M14.9,18.6l-0.6,0.6c-0.1,0.1-0.2,0.2-0.3,0.2
		c-0.3,0-0.5-0.2-0.5-0.5c0-0.1,0.1-0.3,0.2-0.3l0,0l0.6-0.6L14.9,18.6z M13.9,17.5l-0.8,0.8c-0.1,0.1-0.2,0.2-0.3,0.2
		c-0.3,0-0.5-0.2-0.5-0.5c0-0.1,0.1-0.2,0.2-0.3l0,0l0.8-0.8L13.9,17.5z M16.5,12.7c0.3,0.1,0.3,0.4,0.3,0.5c0,0.2-0.1,1.1-0.2,1.3
		c0,0.1-0.1,0.2-0.1,0.2c0,0,0,0,0,0c0,0-0.2,0.4-0.6,0.8c-0.1,0.1-0.1,0.1-0.2,0.1c-0.2,0-0.4-0.2-0.5-0.3l-0.3-0.3l1-1
		C16,14,16,13.9,16,13.7c0-0.2-0.1-0.3-0.2-0.4l-1.2-1.2C15.4,12.4,16.2,12.6,16.5,12.7z M13.6,11.8L13.6,11.8l1.9,1.9c0,0,0,0,0,0
		c0,0,0,0,0,0l-1,1l-1.8-1.8c-0.2-0.2-0.5-0.4-0.8-0.4c-0.3,0-0.6,0.1-0.9,0.3c-0.5,0.5-0.5,1.3,0,1.8l1.8,1.8l-2,2c0,0-0.1,0-0.1,0
		l-7.4-7.4l-0.1-0.5l0.6,0.2c0.1,0,0.2,0,0.2-0.1c0.1-0.1,0.1-0.2,0.1-0.2L3.9,9.9L4.5,10c0.1,0,0.2,0,0.2-0.1
		c0.1-0.1,0.1-0.2,0.1-0.2L4.7,9.1l0.6,0.2c0.1,0,0.2,0,0.2-0.1C5.6,9.2,5.6,9.1,5.6,9L5.4,8.4L6,8.6c0.1,0,0.2,0,0.2-0.1
		c0.1-0.1,0.1-0.2,0.1-0.2L6.2,7.7l0.6,0.2c0.1,0,0.2,0,0.2-0.1s0.1-0.2,0.1-0.2L6.9,7l0.6,0.2c0.1,0,0.2,0,0.2-0.1
		C7.8,7,7.8,6.9,7.8,6.9L7.6,6.3l0.5,0.1l4.6,4.6L13.6,11.8z"/>
	<path class="st2" d="M8.3,10.1C8.2,10,8.1,10,7.9,10c-0.2,0-0.4,0.1-0.6,0.4l-0.4,0.4l0.8,0.8l0.4-0.4c0.1-0.1,0.2-0.2,0.3-0.4
		c0.1-0.1,0.1-0.2,0.1-0.3C8.5,10.3,8.4,10.3,8.3,10.1z"/>
	<path class="st2" d="M12.1,11L8.5,7.5c-0.1-0.1-0.3-0.1-0.4,0L4.6,11c-0.1,0.1-0.1,0.3,0,0.4L8.1,15c0.1,0.1,0.3,0.1,0.4,0l3.5-3.5
		C12.2,11.3,12.2,11.1,12.1,11z M9.2,10.5c0,0.3-0.2,0.6-0.5,1l-0.5,0.5l0.8,0.8C9,12.8,9.1,12.9,9.1,13c0,0.1,0,0.2-0.1,0.3
		c-0.1,0.1-0.2,0.1-0.3,0.1s-0.2-0.1-0.3-0.2l-2.1-2.1c-0.1-0.1-0.2-0.2-0.2-0.3c0-0.1,0.1-0.2,0.2-0.3L7,9.8
		c0.2-0.2,0.4-0.4,0.5-0.4C7.7,9.3,7.8,9.2,8,9.2s0.3,0,0.5,0.1c0.2,0.1,0.3,0.2,0.4,0.3C9.1,9.9,9.2,10.1,9.2,10.5z"/>
</g>
</svg>
