<?xml version="1.0" encoding="utf-8"?>
<!-- Generator: Adobe Illustrator 21.1.0, SVG Export Plug-In . SVG Version: 6.00 Build 0)  -->
<svg version="1.1" id="_x2014_ÎÓÈ_x5F_1" xmlns="http://www.w3.org/2000/svg" xmlns:xlink="http://www.w3.org/1999/xlink"
	 x="0px" y="0px" viewBox="0 0 26.1 26.1" style="enable-background:new 0 0 26.1 26.1;" xml:space="preserve">
<style type="text/css">
	.st0{fill:#E94190;stroke:#FFFFFF;stroke-width:4.574918e-02;stroke-miterlimit:10;}
	.st1{fill:none;}
	.st2{fill:#FFFFFF;stroke:#FFFFFF;stroke-width:3.872436e-02;stroke-miterlimit:10;}
	.st3{fill:none;stroke:#E94190;stroke-width:0.3005;stroke-miterlimit:10;}
	.st4{fill:#FFFFFF;stroke:#E94190;stroke-width:3.872436e-02;stroke-miterlimit:10;}
</style>
<g>
	<ellipse class="st0" cx="13" cy="13" rx="12" ry="11.9"/>
	<path class="st1" d="M12.3,18.2c-0.1,0.1-0.1,0.2-0.1,0.3c0,0.2,0.2,0.4,0.4,0.4c0.1,0,0.2,0,0.3-0.1l0.7-0.7L13,17.4L12.3,18.2
		C12.3,18.2,12.3,18.2,12.3,18.2z"/>
	<path class="st1" d="M12.4,18.1c-0.1,0.1-0.1,0.2-0.1,0.3c0,0.2,0.2,0.4,0.4,0.4c0.1,0,0.2,0,0.3-0.1l0.6-0.6l-0.6-0.6L12.4,18.1
		C12.4,18.1,12.4,18.1,12.4,18.1z"/>
	<path class="st2" d="M13,9.5v10c0,0-1.7-1.2-9.9-0.9V7.9C3.1,7.9,10.1,8.2,13,9.5z"/>
	<path class="st3" d="M13,9.5v10c0,0-1.7-1.2-9.9-0.9V7.9C3.1,7.9,10.1,8.2,13,9.5z"/>
	<path class="st2" d="M13,9.5v10c0,0-1.5-2-8.7-1.7V7.3C4.3,7.3,10.5,8.2,13,9.5z"/>
	<path class="st3" d="M13,9.5v10c0,0-1.5-2-8.7-1.7V7.3C4.3,7.3,10.5,8.2,13,9.5z"/>
	<path class="st4" d="M13,9.5v10c0,0-1.5-2.7-7.3-2.4V6.7C5.6,6.7,10.9,7.5,13,9.5z"/>
	<path class="st3" d="M13,9.5v10c0,0-1.5-2.7-7.3-2.4V6.7C5.6,6.7,10.9,7.5,13,9.5z"/>
	<path class="st2" d="M13,19.5c0,0-0.9-1.4-2.5-2.1c-1.5-0.6-2.7-0.6-4.1-1.4v-10c0,0,0.3,0.9,2.9,1.5c0.8,0.2,3.1,0.9,3.7,2.1V19.5
		z"/>
	<path class="st3" d="M13,19.5c0,0-0.9-1.4-2.5-2.1c-1.5-0.6-2.7-0.6-4.1-1.4v-10c0,0,0.3,0.9,2.9,1.5c0.8,0.2,3.1,0.9,3.7,2.1V19.5
		z"/>
	<path class="st2" d="M13,9.5v10c0,0,1.7-1.2,9.9-0.9V7.9C22.9,7.9,15.9,8.2,13,9.5z"/>
	<path class="st3" d="M13,9.5v10c0,0,1.7-1.2,9.9-0.9V7.9C22.9,7.9,15.9,8.2,13,9.5z"/>
	<path class="st2" d="M13.1,9.5v10c0,0,1.5-2,8.7-1.7V7.3C21.7,7.3,15.6,8.2,13.1,9.5z"/>
	<path class="st3" d="M13.1,9.5v10c0,0,1.5-2,8.7-1.7V7.3C21.7,7.3,15.6,8.2,13.1,9.5z"/>
	<path class="st4" d="M13.1,9.5v10c0,0,1.5-2.7,7.3-2.4V6.7C20.4,6.7,15.1,7.5,13.1,9.5z"/>
	<path class="st3" d="M13.1,9.5l-0.1,10c0,0,1.5-2.7,7.3-2.3l0.1-10.4C20.4,6.7,15.1,7.5,13.1,9.5z"/>
</g>
</svg>
