<?xml version="1.0" encoding="utf-8"?>
<!-- Generator: Adobe Illustrator 21.1.0, SVG Export Plug-In . SVG Version: 6.00 Build 0)  -->
<svg version="1.1" id="_x2014_ÎÓÈ_x5F_1" xmlns="http://www.w3.org/2000/svg" xmlns:xlink="http://www.w3.org/1999/xlink"
	 x="0px" y="0px" viewBox="0 0 26.1 26.1" style="enable-background:new 0 0 26.1 26.1;" xml:space="preserve">
<style type="text/css">
	.st0{fill:#FFFFFF;stroke:#FFFFFF;stroke-width:4.168878e-02;stroke-miterlimit:10;}
	.st1{fill:#008D58;stroke:#FFFFFF;stroke-width:4.594503e-02;stroke-miterlimit:10;}
	.st2{fill:#FFFFFF;}
	.st3{fill:#008D58;}
</style>
<g>
	<circle class="st0" cx="13" cy="13" r="12"/>
	<g>
		<g>
			<path class="st1" d="M12.1,1.1C5.9,1.5,1.1,6.7,1.1,13s4.9,11.5,11.1,12V1.1z"/>
			<path class="st1" d="M14,1.1v24C20.1,24.5,25,19.4,25,13S20.1,1.5,14,1.1z"/>
		</g>
		<g>
			<rect x="9.5" y="3.9" class="st2" width="7.2" height="18.5"/>
			<path class="st3" d="M16.5,4v18.2H9.6V4H16.5 M16.8,3.7h-0.3H9.6H9.3V4v18.2v0.3h0.3h6.9h0.3v-0.3V4V3.7L16.8,3.7z"/>
		</g>
		<g>
			<path class="st3" d="M15.6,5.1v16.1h-5V5.1H15.6 M16,4.7h-5.9v17H16V4.7L16,4.7z"/>
		</g>
	</g>
</g>
</svg>
