<?xml version="1.0" encoding="utf-8"?>
<!-- Generator: Adobe Illustrator 22.0.1, SVG Export Plug-In . SVG Version: 6.00 Build 0)  -->
<svg version="1.1" id="_x2014_ÎÓÈ_x5F_1" xmlns="http://www.w3.org/2000/svg" xmlns:xlink="http://www.w3.org/1999/xlink"
	 x="0px" y="0px" viewBox="0 0 26 26" style="enable-background:new 0 0 26 26;" xml:space="preserve">
<style type="text/css">
	.st0{fill:#E75300;}
	.st1{fill:#FFFFFF;}
	.st2{fill:#333333;}
	.st3{fill:#FFFFFF;stroke:#E75300;stroke-width:0.249;stroke-miterlimit:10;}
</style>
<g>
	<circle class="st0" cx="13" cy="13" r="12"/>
	<path class="st1" d="M4.5,14v1.4h0.5h0.6h1h1.2h0.6h0.8h1.3h0.8c0.2,0,0.4,0,0.5,0c0.2-0.1,0.4-0.2,0.5-0.2c2.6,0,5.3,0,8,0
		c0.2,0.1,0.5,0.2,0.7,0.2h1h0.5h0.5V14H4.5z"/>
	<g id="XMLID_3395_">
		<path id="XMLID_3397_" class="st1" d="M5.5,16.1c0.2-0.6,0.3-1.2,0.5-1.7c1.7,0,3.5,0,5.3,0c0.2,0.6,0.3,1.2,0.5,1.7
			C9.7,16.1,7.6,16.1,5.5,16.1z"/>
		<path id="XMLID_3396_" class="st1" d="M6.1,14.7c1.7,0,3.4,0,5,0c0.1,0.5,0.2,1,0.4,1.4c0.1,0,0.2,0,0.2,0
			c-0.2-0.6-0.3-1.2-0.5-1.7c-1.7,0-3.5,0-5.3,0c-0.2,0.6-0.3,1.2-0.5,1.7c0.1,0,0.2,0,0.2,0C5.9,15.7,6,15.2,6.1,14.7z"/>
	</g>
	<g id="XMLID_2904_">
		<path class="st1" d="M17.2,8.5c-3.5,0-7.1,0-10.6,0c-1.1,1.1-2.3,2.1-3.4,3.2c0,1.4,0,2.9,0.1,4.3c0.3,0,0.5,0,0.8,0
			c0.4-0.5,0.8-0.9,1.1-1.4c0.5,0,1.1,0,1.6,0c3.5,0,7,0,10.4,0C17.2,12.5,17.2,10.5,17.2,8.5z"/>
	</g>
	<path class="st1" d="M15.8,16h-2.6c-0.4,0-0.7-0.3-0.7-0.7l0,0c0-0.4,0.3-0.7,0.7-0.7h2.6c0.4,0,0.7,0.3,0.7,0.7l0,0
		C16.4,15.7,16.1,16,15.8,16z"/>
	<path id="XMLID_7_" class="st1" d="M21.1,8.8c-0.7-0.2-1.4-0.2-2.8-0.2c-0.2,0-0.5,0-0.8,0V9h4.1C21.5,8.9,21.4,8.8,21.1,8.8z"/>
	<path class="st1" d="M22,9.3c-0.1-0.1-0.2-0.2-0.3-0.3h-4.1v5.1c1.7,0,3.5,0,5.3,0v-2.7C22.6,10.7,22.3,10,22,9.3z"/>
	<path class="st2" d="M22.7,15.6c0.1,0,0.1-0.1,0.2-0.1v-1.1C22.8,14.8,22.7,15.2,22.7,15.6z"/>
	<path class="st1" d="M18,14.3c-0.2,0-0.4,0.2-0.4,0.5v1.4c0.4,0,0.8,0,1.3,0c0-0.1,0-0.8,0.7-1.3c0.5-0.4,1.2-0.2,1.7,0.2
		c0.5,0.5,0.5,1.1,0.5,1.1c0.5,0,0.8,0,1.3,0v-1.9L18,14.3L18,14.3z"/>
	<path class="st0" d="M21.5,9.4c-0.5,0-1,0-1.4,0c0,0.6,0,1.2,0,1.7c0.7,0,1.4,0,2,0"/>
	<path id="XMLID_28_" class="st0" d="M19.2,9.2c0.1,0,0.2,0.1,0.2,0.2v2.1c0,0.2-0.1,0.2-0.2,0.2h-0.7c-0.1,0-0.2-0.1-0.2-0.2V9.4
		c0-0.2,0.1-0.2,0.2-0.2H19.2z"/>
	<path class="st0" d="M14.2,11.3c0-0.2-0.2-0.4-0.4-0.4c-0.1,0-0.2,0-0.2,0.1c-0.2-0.8-1-1.5-1.9-1.5c-1.1,0-2,0.8-2,1.9
		s0.8,1.9,2,1.9c0.3,0,0.7-0.1,1-0.3l-0.3-0.4c-0.2,0.1-0.4,0.2-0.7,0.2c-0.8,0-1.4-0.7-1.4-1.4s0.7-1.4,1.4-1.4
		c0.7,0,1.2,0.4,1.4,1.1c-0.1-0.1-0.2-0.1-0.2-0.1c-0.2,0-0.4,0.2-0.4,0.4c0,0.2,0.1,0.4,0.4,0.6c0.3,0.3,0.5,0.5,0.5,0.5
		s0.2-0.2,0.5-0.5C14.1,11.6,14.2,11.5,14.2,11.3L14.2,11.3z"/>
	<g>
		<ellipse id="XMLID_1_" class="st3" cx="7.1" cy="16.3" rx="1.3" ry="1.4"/>
		<ellipse id="XMLID_2_" class="st0" cx="7.1" cy="16.3" rx="0.8" ry="0.8"/>
	</g>
	<g>
		<ellipse id="XMLID_4_" class="st3" cx="10.1" cy="16.3" rx="1.3" ry="1.4"/>
		<ellipse id="XMLID_3_" class="st0" cx="10.1" cy="16.3" rx="0.8" ry="0.8"/>
	</g>
	<g>
		<ellipse id="XMLID_6_" class="st3" cx="20.2" cy="16.2" rx="1.3" ry="1.4"/>
		<ellipse id="XMLID_5_" class="st0" cx="20.2" cy="16.2" rx="0.8" ry="0.8"/>
	</g>
</g>
</svg>
