<?xml version="1.0" encoding="utf-8"?>
<!-- Generator: Adobe Illustrator 21.1.0, SVG Export Plug-In . SVG Version: 6.00 Build 0)  -->
<svg version="1.1" id="_x2014_ÎÓÈ_x5F_1" xmlns="http://www.w3.org/2000/svg" xmlns:xlink="http://www.w3.org/1999/xlink"
	 x="0px" y="0px" viewBox="0 0 26.1 38.6" style="enable-background:new 0 0 26.1 38.6;" xml:space="preserve">
<style type="text/css">
	.st0{fill:#6F6F6E;}
	.st1{fill:#FFFFFF;}
	.st2{fill:#008D58;stroke:#FFFFFF;stroke-width:4.198802e-02;stroke-miterlimit:10;}
	.st3{fill:#008D58;}
</style>
<g>
	<g>
		<path class="st0" d="M25,14c0-6.6-5.4-12-12-12S1,7.4,1,14c0,2.1,0.5,4,1.5,5.7h0l0,0.1c0.1,0.2,0.2,0.3,0.3,0.5L13,37.8
			l10.2-17.5h0C24.3,18.5,25,16.3,25,14z M13,21.8c-4.5,0-8.2-3.7-8.2-8.2c0-4.5,3.7-8.2,8.2-8.2c4.5,0,8.2,3.7,8.2,8.2
			C21.2,18.1,17.5,21.8,13,21.8z"/>
	</g>
	<circle class="st1" cx="13" cy="13.8" r="11.4"/>
	<g>
		<g>
			<path class="st2" d="M12.2,2.9C6.5,3.3,2.1,8,2.1,13.8s4.5,10.5,10.1,10.9V2.9z"/>
			<path class="st2" d="M13.9,2.9v21.9C19.5,24.3,24,19.6,24,13.8S19.5,3.3,13.9,2.9z"/>
		</g>
		<g>
			<rect x="9.7" y="5.5" class="st1" width="6.6" height="16.9"/>
			<path class="st3" d="M16.2,5.6v16.6H9.9V5.6H16.2 M16.4,5.4h-0.3H9.9H9.6v0.3v16.6v0.3h0.3h6.3h0.3v-0.3V5.6V5.4L16.4,5.4z"/>
		</g>
		<g>
			<path class="st3" d="M15.3,6.6v14.7h-4.6V6.6H15.3 M15.7,6.2h-5.4v15.5h5.4V6.2L15.7,6.2z"/>
		</g>
	</g>
</g>
</svg>
