<?xml version="1.0" encoding="UTF-8"?>
<svg xmlns="http://www.w3.org/2000/svg" xmlns:xlink="http://www.w3.org/1999/xlink" width="25pt" height="37pt" viewBox="0 0 25 37" version="1.1">
<g id="surface1">
<path style=" stroke:none;fill-rule:nonzero;fill:rgb(43.529412%,43.529412%,43.137255%);fill-opacity:1;" d="M 24.039062 12.855469 C 24.039062 6.59375 18.847656 1.46875 12.5 1.46875 C 6.152344 1.46875 0.960938 6.59375 0.960938 12.855469 C 0.960938 14.847656 1.441406 16.648438 2.402344 18.261719 L 2.402344 18.359375 C 2.5 18.546875 2.597656 18.640625 2.691406 18.832031 L 12.5 35.433594 L 22.308594 18.832031 C 23.460938 17.125 24.039062 15.132812 24.039062 12.855469 Z M 12.5 20.351562 C 8.171875 20.351562 4.617188 16.839844 4.617188 12.570312 C 4.617188 8.207031 8.171875 4.695312 12.5 4.695312 C 16.828125 4.695312 20.382812 8.207031 20.382812 12.476562 C 20.382812 16.746094 16.828125 20.351562 12.5 20.351562 Z M 12.5 20.351562 "/>
<path style=" stroke:none;fill-rule:nonzero;fill:rgb(100%,100%,100%);fill-opacity:1;" d="M 23.171875 12.761719 C 23.171875 18.578125 18.394531 23.292969 12.5 23.292969 C 6.605469 23.292969 1.828125 18.578125 1.828125 12.761719 C 1.828125 6.945312 6.605469 2.230469 12.5 2.230469 C 18.394531 2.230469 23.171875 6.945312 23.171875 12.761719 Z M 23.171875 12.761719 "/>
<path style=" stroke:none;fill-rule:nonzero;fill:rgb(0%,18.431373%,52.941176%);fill-opacity:1;" d="M 22.789062 12.761719 C 22.789062 18.367188 18.183594 22.910156 12.5 22.910156 C 6.816406 22.910156 2.210938 18.367188 2.210938 12.761719 C 2.210938 7.152344 6.816406 2.609375 12.5 2.609375 C 18.183594 2.609375 22.789062 7.152344 22.789062 12.761719 Z M 22.789062 12.761719 "/>
<path style=" stroke:none;fill-rule:nonzero;fill:rgb(100%,100%,100%);fill-opacity:1;" d="M 9.808594 4.886719 C 9.421875 4.792969 8.941406 4.980469 8.847656 5.265625 L 15.960938 7.828125 C 16.058594 7.636719 16.347656 7.449219 16.539062 7.449219 C 16.441406 7.257812 16.25 7.164062 16.152344 7.066406 Z M 9.808594 4.886719 "/>
<path style=" stroke:none;fill-rule:nonzero;fill:rgb(100%,100%,100%);fill-opacity:1;" d="M 14.902344 17.976562 L 15.867188 9.15625 L 8.367188 9.15625 L 8.367188 9.722656 L 8.367188 9.15625 L 9.039062 19.96875 C 9.039062 20.253906 9.421875 20.539062 9.710938 20.539062 L 13.652344 20.539062 C 13.269531 20.253906 13.078125 19.875 13.078125 19.304688 C 13.078125 18.453125 13.75 17.882812 14.519531 17.882812 C 14.710938 17.976562 14.710938 17.976562 14.902344 17.976562 Z M 14.902344 17.976562 "/>
<path style=" stroke:none;fill-rule:nonzero;fill:rgb(100%,100%,100%);fill-opacity:1;" d="M 14.617188 18.832031 C 15 18.832031 15.191406 19.117188 15.191406 19.402344 C 15.191406 19.78125 14.902344 19.96875 14.617188 19.96875 C 14.328125 19.96875 14.039062 19.6875 14.039062 19.402344 C 13.941406 19.117188 14.230469 18.832031 14.617188 18.832031 Z M 15.769531 19.496094 C 15.769531 18.832031 15.191406 18.261719 14.519531 18.261719 C 13.847656 18.261719 13.269531 18.832031 13.269531 19.496094 C 13.269531 20.160156 13.847656 20.730469 14.519531 20.730469 C 15.289062 20.632812 15.769531 20.066406 15.769531 19.496094 Z M 15.769531 19.496094 "/>
<path style=" stroke:none;fill-rule:nonzero;fill:rgb(100%,100%,100%);fill-opacity:1;" d="M 16.730469 7.636719 C 17.019531 7.636719 17.210938 7.828125 17.210938 8.113281 C 17.210938 8.394531 17.019531 8.585938 16.730469 8.585938 C 16.441406 8.585938 16.25 8.394531 16.25 8.113281 C 16.25 7.828125 16.441406 7.636719 16.730469 7.636719 Z M 16.730469 7.636719 "/>
<path style=" stroke:none;fill-rule:nonzero;fill:rgb(100%,100%,100%);fill-opacity:1;" d="M 16.730469 7.921875 C 16.828125 7.921875 16.921875 8.015625 16.921875 8.113281 C 16.921875 8.207031 16.828125 8.300781 16.730469 8.300781 C 16.632812 8.300781 16.539062 8.207031 16.539062 8.113281 C 16.539062 8.015625 16.632812 7.921875 16.730469 7.921875 Z M 16.730469 7.921875 "/>
<path style=" stroke:none;fill-rule:nonzero;fill:rgb(100%,100%,100%);fill-opacity:1;" d="M 15.960938 8.207031 C 16.058594 8.492188 16.152344 8.679688 16.441406 8.777344 C 16.347656 8.871094 16.152344 8.964844 15.867188 8.964844 L 8.078125 8.964844 C 7.882812 8.964844 7.882812 8.871094 7.882812 8.777344 L 7.882812 8.394531 C 7.882812 8.300781 7.980469 8.207031 8.078125 8.207031 Z M 15.960938 8.207031 "/>
</g>
</svg>
