<?xml version="1.0" encoding="UTF-8"?>
<svg xmlns="http://www.w3.org/2000/svg" xmlns:xlink="http://www.w3.org/1999/xlink" width="25pt" height="37pt" viewBox="0 0 25 37" version="1.1">
<g id="surface1">
<path style=" stroke:none;fill-rule:nonzero;fill:rgb(43.529412%,43.529412%,43.137255%);fill-opacity:1;" d="M 24.039062 12.855469 C 24.039062 6.59375 18.847656 1.46875 12.5 1.46875 C 6.152344 1.46875 0.960938 6.59375 0.960938 12.855469 C 0.960938 14.847656 1.441406 16.648438 2.402344 18.261719 L 2.402344 18.359375 C 2.5 18.546875 2.597656 18.640625 2.691406 18.832031 L 12.5 35.433594 L 22.308594 18.832031 C 23.460938 17.125 24.039062 15.132812 24.039062 12.855469 Z M 12.5 20.351562 C 8.171875 20.351562 4.617188 16.839844 4.617188 12.570312 C 4.617188 8.207031 8.171875 4.695312 12.5 4.695312 C 16.828125 4.695312 20.382812 8.207031 20.382812 12.476562 C 20.382812 16.746094 16.828125 20.351562 12.5 20.351562 Z M 12.5 20.351562 "/>
<path style=" stroke:none;fill-rule:nonzero;fill:rgb(100%,100%,100%);fill-opacity:1;" d="M 23.171875 12.761719 C 23.171875 18.578125 18.394531 23.292969 12.5 23.292969 C 6.605469 23.292969 1.828125 18.578125 1.828125 12.761719 C 1.828125 6.945312 6.605469 2.230469 12.5 2.230469 C 18.394531 2.230469 23.171875 6.945312 23.171875 12.761719 Z M 23.171875 12.761719 "/>
<path style=" stroke:none;fill-rule:nonzero;fill:rgb(62.352941%,10.588235%,58.823529%);fill-opacity:1;" d="M 22.789062 12.761719 C 22.789062 18.367188 18.183594 22.910156 12.5 22.910156 C 6.816406 22.910156 2.210938 18.367188 2.210938 12.761719 C 2.210938 7.152344 6.816406 2.609375 12.5 2.609375 C 18.183594 2.609375 22.789062 7.152344 22.789062 12.761719 Z M 22.789062 12.761719 "/>
<path style=" stroke:none;fill-rule:nonzero;fill:rgb(100%,100%,100%);fill-opacity:1;" d="M 20.867188 18.925781 L 19.617188 17.695312 C 19.617188 17.695312 19.328125 17.3125 19.328125 16.839844 C 19.328125 16.175781 19.039062 13.898438 18.941406 13.707031 C 18.941406 13.613281 18.847656 13.140625 18.460938 12.761719 C 18.269531 12.570312 17.980469 12.285156 17.691406 12 C 17.308594 11.621094 16.921875 11.242188 16.632812 10.957031 C 16.441406 10.671875 16.347656 10.671875 15.671875 10.578125 C 15.578125 10.578125 15.480469 10.578125 15.382812 10.578125 L 12.019531 10.105469 L 8.652344 6.785156 C 8.652344 6.785156 8.558594 6.785156 8.558594 6.6875 L 7.691406 6.5 C 7.597656 6.5 7.597656 6.5 7.5 6.59375 C 7.402344 6.59375 7.402344 6.59375 7.402344 6.6875 L 7.5 7.164062 L 7.117188 7.066406 C 7.019531 7.066406 7.019531 7.066406 6.921875 7.164062 C 6.828125 7.164062 6.828125 7.257812 6.828125 7.257812 L 6.921875 7.828125 L 6.441406 7.636719 C 6.347656 7.636719 6.347656 7.636719 6.25 7.730469 C 6.152344 7.828125 6.152344 7.828125 6.25 7.921875 L 6.347656 8.394531 L 5.867188 8.300781 C 5.769531 8.300781 5.769531 8.300781 5.671875 8.394531 C 5.578125 8.394531 5.578125 8.492188 5.578125 8.492188 L 5.769531 9.058594 L 5.191406 8.871094 C 5.097656 8.871094 5.097656 8.871094 5 8.964844 C 5 8.964844 4.902344 9.058594 5 9.15625 L 5.097656 9.628906 L 4.617188 9.535156 C 4.519531 9.535156 4.519531 9.535156 4.421875 9.628906 C 4.328125 9.628906 4.328125 9.722656 4.328125 9.722656 L 4.421875 10.199219 L 3.941406 10.105469 C 3.847656 10.105469 3.847656 10.105469 3.75 10.199219 C 3.652344 10.292969 3.652344 10.292969 3.652344 10.386719 L 3.847656 11.242188 C 3.847656 11.242188 3.847656 11.335938 3.941406 11.335938 L 10.191406 17.695312 C 10.289062 17.789062 10.382812 17.789062 10.578125 17.789062 C 10.671875 17.789062 10.867188 17.695312 10.960938 17.695312 L 11.441406 17.21875 C 11.539062 17.597656 11.828125 17.882812 12.308594 17.882812 C 12.402344 17.882812 12.402344 17.882812 12.5 17.882812 C 12.597656 18.261719 12.882812 18.640625 13.367188 18.640625 C 13.558594 18.640625 13.75 18.546875 13.941406 18.359375 L 14.328125 17.976562 C 14.421875 18.359375 14.617188 18.832031 15.097656 19.304688 C 15.769531 19.96875 17.019531 20.351562 17.117188 20.445312 C 17.117188 20.445312 17.210938 20.445312 17.210938 20.445312 C 17.308594 20.445312 17.402344 20.351562 17.402344 20.351562 C 17.402344 20.253906 17.402344 20.066406 17.308594 20.066406 C 17.308594 20.066406 16.058594 19.589844 15.480469 19.023438 C 14.808594 18.359375 14.808594 17.597656 14.808594 17.597656 C 14.808594 17.503906 14.808594 17.503906 14.710938 17.503906 L 11.058594 13.992188 C 10.867188 13.804688 10.867188 13.328125 11.058594 13.140625 C 11.152344 13.042969 11.347656 12.949219 11.441406 12.949219 C 11.632812 12.949219 11.730469 13.042969 11.828125 13.140625 L 13.558594 14.847656 L 13.941406 15.226562 C 13.941406 15.226562 14.328125 15.605469 14.710938 15.605469 C 14.902344 15.605469 15.097656 15.511719 15.191406 15.417969 C 15.578125 15.039062 15.769531 14.65625 15.769531 14.65625 C 15.769531 14.5625 15.867188 14.46875 15.867188 14.277344 C 15.867188 14.089844 15.960938 13.234375 15.960938 13.140625 C 15.960938 13.140625 15.960938 12.570312 15.382812 12.378906 C 15 12.285156 13.367188 11.8125 12.980469 11.714844 L 12.210938 10.957031 L 12.5 10.578125 L 15.289062 10.957031 C 15.382812 10.957031 15.480469 10.957031 15.578125 10.957031 C 16.25 11.050781 16.25 11.050781 16.347656 11.148438 C 16.632812 11.433594 17.019531 11.8125 17.402344 12.191406 C 17.691406 12.476562 17.980469 12.761719 18.171875 12.949219 C 18.460938 13.234375 18.558594 13.613281 18.558594 13.613281 C 18.558594 13.613281 18.941406 15.984375 18.941406 16.648438 C 18.941406 17.410156 19.328125 17.789062 19.328125 17.882812 L 20.578125 19.117188 C 20.671875 19.210938 20.769531 19.210938 20.867188 19.117188 C 20.960938 19.117188 20.960938 19.023438 20.867188 18.925781 Z M 14.132812 17.410156 L 13.558594 17.976562 C 13.460938 18.074219 13.367188 18.074219 13.269531 18.074219 C 13.078125 18.074219 12.882812 17.882812 12.882812 17.695312 C 12.882812 17.597656 12.980469 17.503906 12.980469 17.410156 L 13.558594 16.839844 Z M 13.269531 16.554688 L 12.597656 17.21875 C 12.5 17.3125 12.402344 17.3125 12.210938 17.3125 C 12.019531 17.3125 11.828125 17.125 11.828125 16.933594 C 11.828125 16.839844 11.921875 16.746094 11.921875 16.648438 L 12.597656 15.984375 Z M 15.480469 12.476562 C 15.769531 12.570312 15.769531 12.855469 15.769531 12.855469 C 15.769531 12.949219 15.671875 13.707031 15.671875 13.898438 C 15.671875 13.992188 15.578125 14.089844 15.578125 14.089844 C 15.578125 14.089844 15.382812 14.46875 15 14.847656 C 14.902344 14.941406 14.902344 14.941406 14.808594 14.941406 C 14.617188 14.941406 14.421875 14.753906 14.421875 14.753906 L 14.132812 14.46875 L 15 13.613281 C 15.097656 13.519531 15.097656 13.425781 15.097656 13.234375 C 15.097656 13.140625 15 12.949219 15 12.855469 L 13.941406 11.90625 C 14.617188 12.191406 15.289062 12.378906 15.480469 12.476562 Z M 13.078125 11.714844 L 14.710938 13.328125 L 13.941406 14.183594 L 12.402344 12.664062 C 12.210938 12.476562 11.921875 12.378906 11.632812 12.378906 C 11.347656 12.378906 11.058594 12.476562 10.867188 12.664062 C 10.480469 13.042969 10.480469 13.707031 10.867188 14.183594 L 12.402344 15.703125 L 10.671875 17.3125 C 10.671875 17.3125 10.578125 17.3125 10.578125 17.3125 L 4.230469 11.050781 L 4.132812 10.671875 L 4.617188 10.769531 C 4.710938 10.769531 4.710938 10.769531 4.808594 10.671875 C 4.902344 10.578125 4.902344 10.578125 4.902344 10.484375 L 4.808594 10.007812 L 5.289062 10.105469 C 5.382812 10.105469 5.382812 10.105469 5.480469 10.007812 C 5.578125 9.914062 5.578125 9.914062 5.578125 9.820312 L 5.382812 9.441406 L 5.867188 9.535156 C 5.960938 9.535156 5.960938 9.535156 6.058594 9.441406 C 6.152344 9.34375 6.152344 9.34375 6.152344 9.25 L 5.960938 8.777344 L 6.441406 8.871094 C 6.539062 8.871094 6.539062 8.871094 6.632812 8.777344 C 6.730469 8.679688 6.730469 8.777344 6.730469 8.679688 L 6.632812 8.207031 L 7.117188 8.300781 C 7.210938 8.300781 7.210938 8.300781 7.308594 8.207031 C 7.402344 8.113281 7.402344 8.113281 7.402344 8.015625 L 7.210938 7.542969 L 7.691406 7.636719 C 7.789062 7.636719 7.789062 7.636719 7.882812 7.542969 C 7.980469 7.449219 7.980469 7.449219 7.980469 7.351562 L 7.882812 6.972656 L 8.269531 7.066406 L 12.210938 10.957031 Z M 13.078125 11.714844 "/>
<path style=" stroke:none;fill-rule:nonzero;fill:rgb(100%,100%,100%);fill-opacity:1;" d="M 8.460938 10.292969 C 8.367188 10.199219 8.269531 10.105469 8.078125 10.105469 C 7.980469 10.105469 7.789062 10.199219 7.597656 10.386719 L 7.308594 10.671875 L 7.980469 11.335938 L 8.269531 11.050781 C 8.367188 10.957031 8.460938 10.863281 8.558594 10.769531 C 8.652344 10.671875 8.652344 10.578125 8.652344 10.484375 C 8.558594 10.484375 8.558594 10.386719 8.460938 10.292969 Z M 8.460938 10.292969 "/>
<path style=" stroke:none;fill-rule:nonzero;fill:rgb(100%,100%,100%);fill-opacity:1;" d="M 11.730469 11.050781 L 8.652344 8.015625 C 8.558594 7.921875 8.367188 7.921875 8.269531 8.015625 L 5.191406 11.050781 C 5.097656 11.148438 5.097656 11.335938 5.191406 11.433594 L 8.269531 14.46875 C 8.460938 14.46875 8.558594 14.46875 8.652344 14.375 L 11.730469 11.335938 C 11.828125 11.242188 11.828125 11.050781 11.730469 11.050781 Z M 9.230469 10.578125 C 9.230469 10.863281 9.039062 11.148438 8.75 11.433594 L 8.367188 11.8125 L 9.039062 12.476562 C 9.132812 12.570312 9.132812 12.664062 9.132812 12.761719 C 9.132812 12.855469 9.132812 12.949219 9.039062 13.042969 C 8.941406 13.140625 8.941406 13.140625 8.75 13.140625 C 8.652344 13.140625 8.558594 13.042969 8.460938 13.042969 L 6.730469 11.148438 C 6.632812 11.050781 6.539062 10.957031 6.632812 10.863281 C 6.632812 10.769531 6.730469 10.671875 6.828125 10.578125 L 7.402344 10.007812 C 7.597656 9.820312 7.691406 9.722656 7.882812 9.628906 C 7.980469 9.535156 8.171875 9.535156 8.269531 9.535156 C 8.367188 9.535156 8.558594 9.535156 8.652344 9.628906 C 8.75 9.722656 8.941406 9.722656 9.039062 9.914062 C 9.132812 10.007812 9.230469 10.292969 9.230469 10.578125 Z M 9.230469 10.578125 "/>
</g>
</svg>
