<?xml version="1.0" encoding="utf-8"?>
<!-- Generator: Adobe Illustrator 21.1.0, SVG Export Plug-In . SVG Version: 6.00 Build 0)  -->
<svg version="1.1" id="_x2014_ÎÓÈ_x5F_1" xmlns="http://www.w3.org/2000/svg" xmlns:xlink="http://www.w3.org/1999/xlink"
	 x="0px" y="0px" viewBox="0 0 26.1 38.6" style="enable-background:new 0 0 26.1 38.6;" xml:space="preserve">
<style type="text/css">
	.st0{fill:#6F6F6E;}
	.st1{fill:#FFFFFF;}
	.st2{fill:#E94190;stroke:#FFFFFF;stroke-width:4.195518e-02;stroke-miterlimit:10;}
	.st3{fill:none;}
	.st4{fill:#FFFFFF;stroke:#FFFFFF;stroke-width:3.551293e-02;stroke-miterlimit:10;}
	.st5{fill:none;stroke:#E94190;stroke-width:0.2756;stroke-miterlimit:10;}
	.st6{fill:#FFFFFF;stroke:#E94190;stroke-width:3.551293e-02;stroke-miterlimit:10;}
</style>
<g>
	<g>
		<path class="st0" d="M24.8,12.9c0-6.6-5.4-12-12-12s-12,5.4-12,12c0,2.1,0.5,4,1.5,5.7h0l0,0.1c0.1,0.2,0.2,0.3,0.3,0.5l10.2,17.5
			L23,19.2h0C24.1,17.4,24.8,15.2,24.8,12.9z M12.8,20.7c-4.5,0-8.2-3.7-8.2-8.2c0-4.5,3.7-8.2,8.2-8.2c4.5,0,8.2,3.7,8.2,8.2
			C21,17,17.3,20.7,12.8,20.7z"/>
	</g>
	<circle class="st1" cx="12.8" cy="12.7" r="11.4"/>
	<g>
		<circle class="st2" cx="12.8" cy="12.7" r="11"/>
		<path class="st3" d="M12.1,17.4c-0.1,0.1-0.1,0.2-0.1,0.3c0,0.2,0.2,0.4,0.4,0.4c0.1,0,0.2,0,0.3-0.1l0.7-0.7l-0.6-0.6L12.1,17.4
			C12.1,17.4,12.1,17.4,12.1,17.4z"/>
		<path class="st3" d="M12.2,17.3c-0.1,0.1-0.1,0.2-0.1,0.3c0,0.2,0.2,0.4,0.4,0.4c0.1,0,0.2,0,0.3-0.1l0.5-0.5l-0.6-0.6L12.2,17.3
			C12.2,17.3,12.2,17.3,12.2,17.3z"/>
		<path class="st4" d="M12.8,9.4v9.2c0,0-1.6-1.1-9.1-0.9V8C3.7,8,10.2,8.2,12.8,9.4z"/>
		<path class="st5" d="M12.8,9.4v9.2c0,0-1.6-1.1-9.1-0.9V8C3.7,8,10.2,8.2,12.8,9.4z"/>
		<path class="st4" d="M12.8,9.4v9.2c0,0-1.4-1.8-7.9-1.6V7.4C4.8,7.4,10.5,8.2,12.8,9.4z"/>
		<path class="st5" d="M12.8,9.4v9.2c0,0-1.4-1.8-7.9-1.6V7.4C4.8,7.4,10.5,8.2,12.8,9.4z"/>
		<path class="st6" d="M12.8,9.4v9.2c0,0-1.4-2.4-6.7-2.2V6.9C6,6.9,10.9,7.6,12.8,9.4z"/>
		<path class="st5" d="M12.8,9.4v9.2c0,0-1.4-2.4-6.7-2.2V6.9C6,6.9,10.9,7.6,12.8,9.4z"/>
		<path class="st4" d="M12.8,18.6c0,0-0.9-1.3-2.3-1.9c-1.4-0.6-2.4-0.5-3.7-1.3V6.2c0,0,0.3,0.8,2.6,1.4c0.8,0.2,2.9,0.8,3.4,1.9
			V18.6z"/>
		<path class="st5" d="M12.8,18.6c0,0-0.9-1.3-2.3-1.9c-1.4-0.6-2.4-0.5-3.7-1.3V6.2c0,0,0.3,0.8,2.6,1.4c0.8,0.2,2.9,0.8,3.4,1.9
			V18.6z"/>
		<path class="st4" d="M12.8,9.4v9.2c0,0,1.6-1.1,9.1-0.9V8C21.9,8,15.4,8.2,12.8,9.4z"/>
		<path class="st5" d="M12.8,9.4v9.2c0,0,1.6-1.1,9.1-0.9V8C21.9,8,15.4,8.2,12.8,9.4z"/>
		<path class="st4" d="M12.8,9.4v9.2c0,0,1.4-1.8,7.9-1.6V7.4C20.8,7.4,15.1,8.2,12.8,9.4z"/>
		<path class="st5" d="M12.8,9.4v9.2c0,0,1.4-1.8,7.9-1.6V7.4C20.8,7.4,15.1,8.2,12.8,9.4z"/>
		<path class="st6" d="M12.8,9.4v9.2c0,0,1.4-2.4,6.7-2.2V6.9C19.5,6.9,14.7,7.6,12.8,9.4z"/>
		<path class="st5" d="M12.9,9.4l0,9.2c0,0,1.4-2.4,6.7-2.2l0.1-9.5C19.6,6.9,14.7,7.6,12.9,9.4z"/>
	</g>
</g>
</svg>
