<?xml version="1.0" encoding="UTF-8"?>
<svg xmlns="http://www.w3.org/2000/svg" xmlns:xlink="http://www.w3.org/1999/xlink" width="25pt" height="37pt" viewBox="0 0 25 37" version="1.1">
<g id="surface1">
<path style=" stroke:none;fill-rule:nonzero;fill:rgb(43.529412%,43.529412%,43.137255%);fill-opacity:1;" d="M 24.039062 12.855469 C 24.039062 6.59375 18.847656 1.46875 12.5 1.46875 C 6.152344 1.46875 0.960938 6.59375 0.960938 12.855469 C 0.960938 14.847656 1.441406 16.648438 2.402344 18.261719 L 2.402344 18.359375 C 2.5 18.546875 2.597656 18.640625 2.691406 18.832031 L 12.5 35.433594 L 22.308594 18.832031 C 23.367188 17.125 24.039062 15.132812 24.039062 12.855469 Z M 12.5 20.351562 C 8.171875 20.351562 4.617188 16.839844 4.617188 12.570312 C 4.617188 8.300781 8.171875 4.792969 12.5 4.792969 C 16.828125 4.792969 20.382812 8.300781 20.382812 12.570312 C 20.382812 16.839844 16.828125 20.351562 12.5 20.351562 Z M 12.5 20.351562 "/>
<path style=" stroke:none;fill-rule:nonzero;fill:rgb(100%,100%,100%);fill-opacity:1;" d="M 23.171875 12.761719 C 23.171875 18.578125 18.394531 23.292969 12.5 23.292969 C 6.605469 23.292969 1.828125 18.578125 1.828125 12.761719 C 1.828125 6.945312 6.605469 2.230469 12.5 2.230469 C 18.394531 2.230469 23.171875 6.945312 23.171875 12.761719 Z M 23.171875 12.761719 "/>
<path style=" stroke:none;fill-rule:nonzero;fill:rgb(90.588235%,32.54902%,0%);fill-opacity:1;" d="M 22.789062 12.761719 C 22.789062 18.367188 18.183594 22.910156 12.5 22.910156 C 6.816406 22.910156 2.210938 18.367188 2.210938 12.761719 C 2.210938 7.152344 6.816406 2.609375 12.5 2.609375 C 18.183594 2.609375 22.789062 7.152344 22.789062 12.761719 Z M 22.789062 12.761719 "/>
<path style=" stroke:none;fill-rule:nonzero;fill:rgb(100%,100%,100%);fill-opacity:1;" d="M 5.191406 13.519531 L 5.191406 14.65625 L 10.769531 14.65625 C 10.867188 14.65625 11.058594 14.65625 11.152344 14.65625 C 11.25 14.65625 11.441406 14.5625 11.539062 14.46875 C 13.847656 14.46875 16.152344 14.46875 18.367188 14.46875 C 18.558594 14.5625 18.75 14.5625 18.941406 14.65625 L 20.578125 14.65625 L 20.578125 13.519531 Z M 5.191406 13.519531 "/>
<path style=" stroke:none;fill-rule:nonzero;fill:rgb(100%,100%,100%);fill-opacity:1;" d="M 6.058594 15.320312 C 6.152344 14.847656 6.347656 14.277344 6.441406 13.804688 C 7.980469 13.804688 9.421875 13.804688 10.960938 13.804688 C 11.058594 14.277344 11.25 14.847656 11.347656 15.320312 C 9.617188 15.320312 7.789062 15.320312 6.058594 15.320312 Z M 6.058594 15.320312 "/>
<path style=" stroke:none;fill-rule:nonzero;fill:rgb(100%,100%,100%);fill-opacity:1;" d="M 6.539062 14.089844 C 7.980469 14.089844 9.421875 14.089844 10.867188 14.089844 C 10.960938 14.46875 11.058594 14.847656 11.152344 15.320312 C 11.152344 15.320312 11.25 15.320312 11.347656 15.320312 C 11.25 14.847656 11.058594 14.277344 10.960938 13.804688 C 9.421875 13.804688 7.980469 13.804688 6.441406 13.804688 C 6.347656 14.277344 6.152344 14.847656 6.058594 15.320312 C 6.152344 15.320312 6.152344 15.320312 6.25 15.320312 C 6.347656 14.941406 6.539062 14.5625 6.539062 14.089844 Z M 6.539062 14.089844 "/>
<path style=" stroke:none;fill-rule:nonzero;fill:rgb(100%,100%,100%);fill-opacity:1;" d="M 16.058594 8.871094 C 13.078125 8.871094 10 8.871094 6.921875 8.871094 C 5.960938 9.722656 5 10.671875 4.039062 11.527344 C 4.039062 12.761719 4.039062 13.898438 4.039062 15.132812 C 4.328125 15.132812 4.519531 15.132812 4.808594 15.132812 C 5.191406 14.753906 5.480469 14.375 5.769531 13.992188 C 6.152344 13.992188 6.632812 13.992188 7.117188 13.992188 C 10.097656 13.992188 13.078125 13.992188 16.058594 13.992188 C 16.058594 12.285156 16.058594 10.578125 16.058594 8.871094 Z M 16.058594 8.871094 "/>
<path style=" stroke:none;fill-rule:nonzero;fill:rgb(100%,100%,100%);fill-opacity:1;" d="M 14.902344 15.320312 L 12.691406 15.320312 C 12.402344 15.320312 12.117188 15.039062 12.117188 14.753906 C 12.117188 14.46875 12.402344 14.183594 12.691406 14.183594 L 14.902344 14.183594 C 15.191406 14.183594 15.480469 14.46875 15.480469 14.753906 C 15.382812 15.039062 15.191406 15.320312 14.902344 15.320312 Z M 14.902344 15.320312 "/>
<path style=" stroke:none;fill-rule:nonzero;fill:rgb(100%,100%,100%);fill-opacity:1;" d="M 19.421875 9.15625 C 18.847656 8.964844 18.269531 8.964844 17.019531 8.964844 C 16.828125 8.964844 16.539062 8.964844 16.25 8.964844 L 16.25 9.34375 L 19.808594 9.34375 C 19.808594 9.25 19.710938 9.15625 19.421875 9.15625 Z M 19.421875 9.15625 "/>
<path style=" stroke:none;fill-rule:nonzero;fill:rgb(100%,100%,100%);fill-opacity:1;" d="M 20.191406 9.535156 C 20.097656 9.535156 20 9.34375 19.902344 9.25 L 16.347656 9.25 L 16.347656 13.613281 C 17.882812 13.613281 19.328125 13.613281 20.867188 13.613281 L 20.867188 11.335938 C 20.671875 10.769531 20.480469 10.199219 20.191406 9.535156 Z M 20.191406 9.535156 "/>
<path style=" stroke:none;fill-rule:nonzero;fill:rgb(20%,20%,20%);fill-opacity:1;" d="M 20.769531 14.941406 C 20.769531 14.941406 20.867188 14.847656 20.867188 14.847656 L 20.867188 13.992188 C 20.867188 14.277344 20.867188 14.5625 20.769531 14.941406 Z M 20.769531 14.941406 "/>
<path style=" stroke:none;fill-rule:nonzero;fill:rgb(100%,100%,100%);fill-opacity:1;" d="M 16.730469 13.804688 C 16.539062 13.804688 16.347656 13.992188 16.347656 14.183594 L 16.347656 15.417969 C 16.730469 15.417969 17.117188 15.417969 17.402344 15.417969 C 17.402344 15.417969 17.402344 14.65625 17.980469 14.277344 C 18.367188 13.992188 19.039062 14.089844 19.421875 14.375 C 19.808594 14.753906 19.808594 15.226562 19.808594 15.320312 C 20.191406 15.320312 20.578125 15.320312 20.960938 15.320312 L 20.960938 13.707031 Z M 16.730469 13.804688 "/>
<path style=" stroke:none;fill-rule:nonzero;fill:rgb(90.588235%,32.54902%,0%);fill-opacity:1;" d="M 19.710938 9.722656 C 19.328125 9.722656 18.941406 9.722656 18.558594 9.722656 C 18.558594 10.199219 18.558594 10.769531 18.558594 11.242188 C 19.132812 11.242188 19.710938 11.242188 20.289062 11.242188 "/>
<path style=" stroke:none;fill-rule:nonzero;fill:rgb(90.588235%,32.54902%,0%);fill-opacity:1;" d="M 17.789062 9.535156 C 17.882812 9.535156 17.882812 9.628906 17.882812 9.722656 L 17.882812 11.527344 C 17.882812 11.621094 17.882812 11.714844 17.789062 11.714844 L 17.210938 11.714844 C 17.210938 11.714844 17.117188 11.621094 17.117188 11.527344 L 17.117188 9.722656 C 17.117188 9.628906 17.117188 9.535156 17.210938 9.535156 Z M 17.789062 9.535156 "/>
<path style=" stroke:none;fill-rule:nonzero;fill:rgb(90.588235%,32.54902%,0%);fill-opacity:1;" d="M 13.558594 11.242188 C 13.558594 11.050781 13.460938 10.863281 13.171875 10.863281 C 13.078125 10.863281 13.078125 10.863281 12.980469 10.863281 C 12.882812 10.105469 12.210938 9.628906 11.347656 9.628906 C 10.480469 9.628906 9.710938 10.386719 9.710938 11.242188 C 9.710938 12.097656 10.480469 12.855469 11.347656 12.855469 C 11.632812 12.855469 11.921875 12.761719 12.117188 12.570312 L 11.828125 12.285156 C 11.730469 12.378906 11.539062 12.378906 11.25 12.378906 C 10.578125 12.378906 10.097656 11.8125 10.097656 11.148438 C 10.097656 10.484375 10.671875 9.914062 11.25 9.914062 C 11.828125 9.914062 12.308594 10.292969 12.402344 10.769531 C 12.402344 10.769531 12.308594 10.769531 12.210938 10.769531 C 12.019531 10.769531 11.828125 10.863281 11.828125 11.148438 C 11.828125 11.335938 11.921875 11.433594 12.117188 11.621094 C 12.402344 11.90625 12.5 12.097656 12.5 12.097656 C 12.5 12.097656 12.691406 11.90625 12.882812 11.621094 C 13.460938 11.527344 13.558594 11.433594 13.558594 11.242188 Z M 13.558594 11.242188 "/>
<path style="fill-rule:nonzero;fill:rgb(100%,100%,100%);fill-opacity:1;stroke-width:0.2221;stroke-linecap:butt;stroke-linejoin:miter;stroke:rgb(90.588235%,32.54902%,0%);stroke-opacity:1;stroke-miterlimit:10;" d="M 8.900937 16.10019 C 8.900937 15.437289 8.364688 14.902027 7.698437 14.902027 C 7.03625 14.902027 6.5 15.437289 6.5 16.10019 C 6.5 16.763091 7.03625 17.298353 7.698437 17.298353 C 8.364688 17.298353 8.900937 16.763091 8.900937 16.10019 Z M 8.900937 16.10019 " transform="matrix(0.961538,0,0,0.948718,0,0.237179)"/>
<path style=" stroke:none;fill-rule:nonzero;fill:rgb(90.588235%,32.54902%,0%);fill-opacity:1;" d="M 8.078125 15.511719 C 8.078125 15.144531 7.777344 14.847656 7.402344 14.847656 C 7.03125 14.847656 6.730469 15.144531 6.730469 15.511719 C 6.730469 15.878906 7.03125 16.175781 7.402344 16.175781 C 7.777344 16.175781 8.078125 15.878906 8.078125 15.511719 Z M 8.078125 15.511719 "/>
<path style="fill-rule:nonzero;fill:rgb(100%,100%,100%);fill-opacity:1;stroke-width:0.2221;stroke-linecap:butt;stroke-linejoin:miter;stroke:rgb(90.588235%,32.54902%,0%);stroke-opacity:1;stroke-miterlimit:10;" d="M 11.598438 16.10019 C 11.598438 15.437289 11.062188 14.902027 10.4 14.902027 C 9.737813 14.902027 9.201562 15.437289 9.201562 16.10019 C 9.201562 16.763091 9.737813 17.298353 10.4 17.298353 C 11.062188 17.298353 11.598438 16.763091 11.598438 16.10019 Z M 11.598438 16.10019 " transform="matrix(0.961538,0,0,0.948718,0,0.237179)"/>
<path style=" stroke:none;fill-rule:nonzero;fill:rgb(90.588235%,32.54902%,0%);fill-opacity:1;" d="M 10.671875 15.511719 C 10.671875 15.144531 10.371094 14.847656 10 14.847656 C 9.628906 14.847656 9.328125 15.144531 9.328125 15.511719 C 9.328125 15.878906 9.628906 16.175781 10 16.175781 C 10.371094 16.175781 10.671875 15.878906 10.671875 15.511719 Z M 10.671875 15.511719 "/>
<path style="fill-rule:nonzero;fill:rgb(100%,100%,100%);fill-opacity:1;stroke-width:0.2221;stroke-linecap:butt;stroke-linejoin:miter;stroke:rgb(90.588235%,32.54902%,0%);stroke-opacity:1;stroke-miterlimit:10;" d="M 20.600938 16.001372 C 20.600938 15.338471 20.064688 14.799092 19.398438 14.799092 C 18.73625 14.799092 18.2 15.338471 18.2 16.001372 C 18.2 16.664274 18.73625 17.199535 19.398438 17.199535 C 20.064688 17.199535 20.600938 16.664274 20.600938 16.001372 Z M 20.600938 16.001372 " transform="matrix(0.961538,0,0,0.948718,0,0.237179)"/>
<path style=" stroke:none;fill-rule:nonzero;fill:rgb(90.588235%,32.54902%,0%);fill-opacity:1;" d="M 19.328125 15.417969 C 19.328125 15.050781 19.027344 14.753906 18.652344 14.753906 C 18.28125 14.753906 17.980469 15.050781 17.980469 15.417969 C 17.980469 15.785156 18.28125 16.082031 18.652344 16.082031 C 19.027344 16.082031 19.328125 15.785156 19.328125 15.417969 Z M 19.328125 15.417969 "/>
</g>
</svg>
