<?xml version="1.0" encoding="UTF-8"?>
<svg xmlns="http://www.w3.org/2000/svg" xmlns:xlink="http://www.w3.org/1999/xlink" width="25pt" height="37pt" viewBox="0 0 25 37" version="1.1">
<g id="surface1">
<path style=" stroke:none;fill-rule:nonzero;fill:rgb(43.529412%,43.529412%,43.137255%);fill-opacity:1;" d="M 24.039062 12.855469 C 24.039062 6.5 18.847656 1.46875 12.5 1.46875 C 6.152344 1.46875 0.960938 6.59375 0.960938 12.855469 C 0.960938 14.847656 1.441406 16.746094 2.402344 18.359375 C 2.5 18.453125 2.597656 18.738281 2.691406 18.832031 L 12.5 35.433594 L 22.308594 18.832031 C 23.460938 17.125 24.039062 15.039062 24.039062 12.855469 Z M 12.5 20.351562 C 8.078125 20.351562 4.617188 16.839844 4.617188 12.570312 C 4.617188 8.207031 8.171875 4.695312 12.5 4.695312 C 16.828125 4.695312 20.382812 8.207031 20.382812 12.476562 C 20.382812 16.746094 16.828125 20.351562 12.5 20.351562 Z M 12.5 20.351562 "/>
<path style=" stroke:none;fill-rule:nonzero;fill:rgb(100%,100%,100%);fill-opacity:1;" d="M 23.171875 12.761719 C 23.171875 18.578125 18.394531 23.292969 12.5 23.292969 C 6.605469 23.292969 1.828125 18.578125 1.828125 12.761719 C 1.828125 6.945312 6.605469 2.230469 12.5 2.230469 C 18.394531 2.230469 23.171875 6.945312 23.171875 12.761719 Z M 23.171875 12.761719 "/>
<path style=" stroke:none;fill-rule:nonzero;fill:rgb(0%,60.784314%,87.058824%);fill-opacity:1;" d="M 22.789062 12.761719 C 22.789062 18.367188 18.183594 22.910156 12.5 22.910156 C 6.816406 22.910156 2.210938 18.367188 2.210938 12.761719 C 2.210938 7.152344 6.816406 2.609375 12.5 2.609375 C 18.183594 2.609375 22.789062 7.152344 22.789062 12.761719 Z M 22.789062 12.761719 "/>
<path style=" stroke:none;fill-rule:nonzero;fill:rgb(100%,100%,100%);fill-opacity:1;" d="M 17.308594 5.738281 L 7.597656 5.738281 C 6.347656 5.738281 5.382812 6.6875 5.382812 7.921875 L 5.382812 17.503906 C 5.382812 18.738281 6.441406 19.6875 7.597656 19.6875 L 17.308594 19.6875 C 18.558594 19.6875 19.519531 18.738281 19.519531 17.503906 L 19.519531 7.921875 C 19.617188 6.785156 18.558594 5.738281 17.308594 5.738281 Z M 18.652344 17.503906 C 18.652344 18.261719 18.078125 18.832031 17.308594 18.832031 L 7.597656 18.832031 C 6.828125 18.832031 6.347656 18.261719 6.347656 17.503906 L 6.347656 7.921875 C 6.347656 7.164062 6.921875 6.59375 7.597656 6.59375 L 17.308594 6.59375 C 18.078125 6.59375 18.652344 7.164062 18.652344 7.921875 Z M 18.652344 17.503906 "/>
<path style=" stroke:none;fill-rule:nonzero;fill:rgb(100%,100%,100%);fill-opacity:1;" d="M 15.671875 9.535156 L 15.578125 9.535156 L 15.578125 9.15625 C 15.578125 8.394531 15 7.730469 14.132812 7.730469 L 10.960938 7.730469 C 10.578125 7.730469 10.191406 7.921875 9.902344 8.113281 C 9.617188 8.492188 9.519531 8.777344 9.519531 9.15625 L 9.519531 9.535156 L 9.421875 9.535156 C 9.328125 9.535156 9.132812 9.628906 9.132812 9.820312 L 9.132812 10.578125 C 9.132812 10.671875 9.230469 10.863281 9.421875 10.863281 L 9.519531 10.863281 L 9.519531 13.804688 C 9.519531 13.992188 9.617188 14.183594 9.902344 14.183594 L 10 14.183594 L 10 14.753906 C 10 14.941406 10.097656 15.132812 10.382812 15.132812 L 10.960938 15.132812 C 11.152344 15.132812 11.347656 15.039062 11.347656 14.753906 L 11.347656 14.183594 L 13.652344 14.183594 L 13.652344 14.753906 C 13.652344 14.941406 13.75 15.132812 14.039062 15.132812 L 14.617188 15.132812 C 14.808594 15.132812 15 15.039062 15 14.753906 L 15 14.183594 L 15.097656 14.183594 C 15.289062 14.183594 15.480469 14.089844 15.480469 13.804688 L 15.480469 10.863281 L 15.578125 10.863281 C 15.769531 10.863281 15.867188 10.769531 15.867188 10.578125 L 15.867188 9.820312 C 15.867188 9.628906 15.867188 9.535156 15.671875 9.535156 Z M 10.578125 13.613281 C 10.382812 13.613281 10.191406 13.519531 10.191406 13.234375 C 10.191406 13.042969 10.289062 12.855469 10.578125 12.855469 C 10.769531 12.855469 10.960938 12.949219 10.960938 13.234375 C 10.960938 13.425781 10.769531 13.613281 10.578125 13.613281 Z M 14.421875 13.613281 C 14.230469 13.613281 14.039062 13.519531 14.039062 13.234375 C 14.039062 13.042969 14.132812 12.855469 14.421875 12.855469 C 14.617188 12.855469 14.808594 12.949219 14.808594 13.234375 C 14.808594 13.425781 14.710938 13.613281 14.421875 13.613281 Z M 14.902344 11.433594 C 14.902344 11.527344 14.808594 11.621094 14.710938 11.621094 L 10.382812 11.621094 C 10.289062 11.621094 10.191406 11.527344 10.191406 11.433594 L 10.191406 9.722656 C 10.191406 9.25 10.578125 8.777344 11.152344 8.777344 L 14.132812 8.777344 C 14.617188 8.777344 15 9.15625 15 9.628906 Z M 14.902344 11.433594 "/>
<path style=" stroke:none;fill-rule:nonzero;fill:rgb(100%,100%,100%);fill-opacity:1;" d="M 8.75 16.933594 C 8.847656 16.933594 8.941406 16.839844 8.941406 16.648438 C 8.941406 16.367188 8.75 16.269531 8.460938 16.269531 L 8.078125 16.269531 L 8.078125 17.695312 L 8.558594 17.695312 C 8.847656 17.695312 9.039062 17.597656 9.039062 17.3125 C 9.039062 17.03125 8.847656 16.933594 8.75 16.933594 Z M 8.269531 16.460938 L 8.460938 16.460938 C 8.558594 16.460938 8.652344 16.460938 8.652344 16.554688 C 8.652344 16.648438 8.558594 16.648438 8.460938 16.648438 L 8.269531 16.648438 Z M 8.558594 17.410156 L 8.269531 17.410156 L 8.269531 17.03125 L 8.558594 17.03125 C 8.652344 17.03125 8.847656 17.03125 8.847656 17.125 C 8.75 17.410156 8.558594 17.410156 8.558594 17.410156 Z M 8.558594 17.410156 "/>
<path style=" stroke:none;fill-rule:nonzero;fill:rgb(100%,100%,100%);fill-opacity:1;" d="M 10.191406 17.125 C 10.191406 17.3125 10.097656 17.503906 9.902344 17.503906 C 9.710938 17.503906 9.519531 17.3125 9.519531 17.125 L 9.519531 16.269531 L 9.328125 16.269531 L 9.328125 17.125 C 9.328125 17.503906 9.421875 17.695312 9.902344 17.695312 C 10.289062 17.695312 10.480469 17.410156 10.480469 17.125 L 10.480469 16.367188 L 10.191406 16.367188 C 10.097656 16.269531 10.097656 17.125 10.191406 17.125 Z M 10.191406 17.125 "/>
<path style=" stroke:none;fill-rule:nonzero;fill:rgb(100%,100%,100%);fill-opacity:1;" d="M 11.152344 16.839844 C 11.058594 16.746094 10.867188 16.746094 10.867188 16.648438 C 10.867188 16.554688 10.960938 16.554688 10.960938 16.554688 C 10.960938 16.554688 11.058594 16.554688 11.152344 16.648438 L 11.25 16.554688 C 11.25 16.367188 11.152344 16.367188 10.960938 16.367188 C 10.671875 16.367188 10.578125 16.460938 10.578125 16.746094 C 10.578125 16.933594 10.671875 17.03125 10.960938 17.125 C 11.058594 17.21875 11.25 17.21875 11.25 17.3125 C 11.25 17.410156 11.152344 17.410156 11.058594 17.410156 C 10.960938 17.410156 10.769531 17.3125 10.769531 17.21875 L 10.578125 17.410156 C 10.671875 17.503906 10.769531 17.789062 11.058594 17.789062 C 11.347656 17.789062 11.539062 17.597656 11.539062 17.3125 C 11.441406 17.03125 11.347656 16.933594 11.152344 16.839844 Z M 11.152344 16.839844 "/>
<path style=" stroke:none;fill-rule:nonzero;fill:rgb(100%,100%,100%);fill-opacity:1;" d="M 12.980469 16.839844 C 12.882812 16.746094 12.691406 16.746094 12.691406 16.648438 C 12.691406 16.554688 12.789062 16.554688 12.789062 16.554688 C 12.882812 16.554688 12.882812 16.554688 12.980469 16.648438 L 13.078125 16.554688 C 13.078125 16.367188 12.980469 16.367188 12.789062 16.367188 C 12.5 16.367188 12.402344 16.460938 12.402344 16.746094 C 12.402344 16.933594 12.5 17.03125 12.789062 17.125 C 12.882812 17.21875 13.078125 17.21875 13.078125 17.3125 C 13.078125 17.410156 12.980469 17.410156 12.882812 17.410156 C 12.789062 17.410156 12.5 17.3125 12.5 17.21875 L 12.402344 17.3125 C 12.5 17.410156 12.5 17.695312 12.882812 17.695312 C 13.171875 17.695312 13.269531 17.597656 13.269531 17.21875 C 13.367188 17.03125 13.078125 16.933594 12.980469 16.839844 Z M 12.980469 16.839844 "/>
<path style=" stroke:none;fill-rule:nonzero;fill:rgb(100%,100%,100%);fill-opacity:1;" d="M 13.367188 16.460938 L 13.847656 16.460938 L 13.847656 17.597656 L 14.039062 17.597656 L 14.039062 16.460938 L 14.328125 16.460938 L 14.328125 16.269531 L 13.367188 16.269531 Z M 13.367188 16.460938 "/>
<path style=" stroke:none;fill-rule:nonzero;fill:rgb(100%,100%,100%);fill-opacity:1;" d="M 15.191406 16.269531 C 14.808594 16.269531 14.617188 16.554688 14.617188 17.03125 C 14.617188 17.410156 14.902344 17.789062 15.191406 17.789062 C 15.578125 17.789062 15.769531 17.503906 15.769531 17.03125 C 15.867188 16.554688 15.480469 16.269531 15.191406 16.269531 Z M 15.191406 17.410156 C 14.902344 17.410156 14.808594 17.21875 14.808594 16.933594 C 14.808594 16.648438 14.902344 16.460938 15.191406 16.460938 C 15.480469 16.460938 15.671875 16.648438 15.671875 16.933594 C 15.578125 17.21875 15.382812 17.410156 15.191406 17.410156 Z M 15.191406 17.410156 "/>
<path style=" stroke:none;fill-rule:nonzero;fill:rgb(100%,100%,100%);fill-opacity:1;" d="M 16.441406 16.269531 L 15.960938 16.269531 L 15.960938 17.695312 L 16.152344 17.695312 L 16.152344 17.03125 L 16.347656 17.03125 C 16.632812 17.03125 16.828125 16.933594 16.828125 16.554688 C 16.921875 16.367188 16.730469 16.269531 16.441406 16.269531 Z M 16.441406 16.839844 L 16.25 16.839844 L 16.25 16.460938 L 16.441406 16.460938 C 16.539062 16.460938 16.632812 16.460938 16.632812 16.554688 C 16.730469 16.746094 16.632812 16.839844 16.441406 16.839844 Z M 16.441406 16.839844 "/>
</g>
</svg>
